<svg xmlns="http://www.w3.org/2000/svg" width="965.0002" height="1024" viewBox="0 0 965.0002 1024"><g id="ecc29cf8-9750-4359-9990-af3620910e81" data-name="container - BLUE"><path id="ffb0b1c7-a909-458b-9ade-0002ce1e0ca2" data-name="back layer" d="M185,.15,915,160h79v864H166a52,52,0,0,1-52-52V754.2921L183.4662,2.4109Z" transform="translate(-29)" fill="#0c3d91"/><path id="a75f263b-d4d5-4a0b-88b3-15d32fe5af36" data-name="primary facade" d="M156,0H842a52,52,0,0,1,52,52V720a0,0,0,0,1,0,0H156a0,0,0,0,1,0,0V0A0,0,0,0,1,156,0Z" fill="#186bff"/><polygon id="f1a31b05-074a-40ac-badd-9a8b6bdcd7fb" data-name="flap" points="0 814 156 720 156 0 0 94 0 814" fill="#679ae7"/></g><g id="bd3f7e2d-cc6b-42a6-ad29-baa727df179a" data-name="product subscript template"><path d="M486.44,919.4463V942.127c-3.8886,2.16-9.288,3.24-15.12,3.24-13.1767,0-23.5449-3.8887-31.7529-20.9522l-18.1445-36.7207H404.7905V942.127H366.99V790.9248H424.231c32.832,0,54.8642,15.7686,54.8642,41.04v13.6084c0,14.9043-9.2881,26.5684-23.9756,33.9131l16.8477,31.752c2.8086,5.6162,6.48,8.208,12.7441,8.208Zm-81.6494-56.5928h16.416c12.0967,0,20.0889-6.2637,20.0889-17.9277V834.125c0-11.4473-8.209-17.28-20.0889-17.28h-16.416Z" transform="translate(-29)" fill="#fff"/><path d="M491.814,790.9248h39.0971l31.32,121.6094,28.5118-121.6094h38.2334L586.8555,942.127H536.5264Z" transform="translate(-29)" fill="#fff"/><path d="M757.8613,818.1406H718.333V942.127H680.5322V818.1406H640.5713V790.9248h117.29Z" transform="translate(-29)" fill="#fff"/></g><g id="bcc10ef3-a3c8-4c2e-a06a-6e6e01af350f" data-name="product initial template"><path d="M725.8633,500.2764V560.127c-10.26,5.7-24.51,8.55-39.9,8.55-34.77,0-62.1309-10.26-83.791-55.29L554.291,416.4854H510.4V560.127h-99.751V161.1221H561.7012c86.6416,0,144.7822,41.61,144.7822,108.3012v35.91c0,39.3306-24.5107,70.1108-63.27,89.4912l44.46,83.791c7.41,14.82,17.1005,21.6607,33.6308,21.6607ZM510.4,350.9341h43.3213c31.92,0,53.0107-16.53,53.0107-47.3106v-28.5c0-30.21-21.6611-45.6-53.0107-45.6H510.4Z" transform="translate(-29)" fill="#fff"/></g></svg>