<?xml version="1.0" encoding="iso-8859-1"?>
<!-- Uploaded to: SVG Repo, www.svgrepo.com, Generator: SVG Repo Mixer Tools -->
<svg version="1.1" id="Layer_1" xmlns="http://www.w3.org/2000/svg" xmlns:xlink="http://www.w3.org/1999/xlink" 
	 viewBox="0 0 512 512" xml:space="preserve">
<rect x="22.261" y="289.391" style="fill:#58575D;" width="467.478" height="55.652"/>
<rect x="211.478" y="111.304" style="fill:#EDEDED;" width="300.522" height="166.957"/>
<rect x="445.217" y="111.304" style="fill:#D8D8DA;" width="66.783" height="166.957"/>
<polygon style="fill:#D1E5F5;" points="55.652,111.305 133.566,111.305 133.566,289.391 55.652,289.391 11.13,345.043 0,345.043 
	0.001,166.956 "/>
<polygon style="fill:#B4D8F1;" points="89.043,111.304 0.001,200.348 0,345.043 11.13,345.043 55.652,289.391 122.435,289.391 
	133.566,111.304 "/>
<circle style="fill:#88888F;" cx="417.391" cy="350.609" r="50.087"/>
<path style="fill:#797781;" d="M417.391,300.522c-5.856,0-11.472,1.015-16.696,2.862c19.452,6.876,33.391,25.419,33.391,47.225
	c0,21.807-13.94,40.349-33.391,47.225c5.223,1.847,10.84,2.862,16.696,2.862c27.662,0,50.087-22.424,50.087-50.087
	C467.478,322.946,445.055,300.522,417.391,300.522z"/>
<path style="fill:#EDEDED;" d="M417.391,364.522c-7.672,0-13.913-6.241-13.913-13.913s6.241-13.913,13.913-13.913
	s13.913,6.241,13.913,13.913S425.064,364.522,417.391,364.522z"/>
<circle style="fill:#88888F;" cx="317.217" cy="350.609" r="50.087"/>
<path style="fill:#797781;" d="M317.217,300.522c-5.856,0-11.472,1.015-16.696,2.862c19.452,6.876,33.391,25.419,33.391,47.225
	c0,21.807-13.94,40.349-33.391,47.225c5.224,1.847,10.84,2.862,16.696,2.862c27.662,0,50.087-22.424,50.087-50.087
	C367.304,322.946,344.881,300.522,317.217,300.522z"/>
<path style="fill:#EDEDED;" d="M317.217,364.522c-7.672,0-13.913-6.241-13.913-13.913s6.241-13.913,13.913-13.913
	s13.913,6.241,13.913,13.913S324.89,364.522,317.217,364.522z"/>
<circle style="fill:#88888F;" cx="83.478" cy="350.609" r="50.087"/>
<path style="fill:#797781;" d="M83.478,300.522c-5.856,0-11.472,1.015-16.696,2.862c19.452,6.876,33.391,25.419,33.391,47.225
	c0,21.807-13.94,40.349-33.391,47.225c5.224,1.847,10.84,2.862,16.696,2.862c27.662,0,50.087-22.424,50.087-50.087
	C133.565,322.946,111.142,300.522,83.478,300.522z"/>
<path style="fill:#EDEDED;" d="M83.478,364.522c-7.672,0-13.913-6.241-13.913-13.913s6.241-13.913,13.913-13.913
	s13.913,6.241,13.913,13.913S91.15,364.522,83.478,364.522z"/>
<rect x="166.957" y="267.13" style="fill:#797781;" width="55.652" height="33.391"/>
<rect x="122.435" y="233.739" style="fill:#88888F;" width="55.652" height="66.783"/>
<polygon style="fill:#E07188;" points="89.043,111.304 89.043,200.348 0.001,200.348 0,345.043 22.261,345.043 55.652,300.522 
	133.566,300.522 133.566,111.304 "/>
<g>
	<polygon style="fill:#DC4161;" points="0,330.203 0,345.043 22.261,345.043 55.652,300.522 22.261,300.522 	"/>
	<rect x="100.174" y="111.304" style="fill:#DC4161;" width="33.391" height="189.217"/>
	<path style="fill:#DC4161;" d="M77.913,242.087H44.522c-4.61,0-8.348-3.736-8.348-8.348s3.738-8.348,8.348-8.348h33.391
		c4.61,0,8.348,3.736,8.348,8.348S82.524,242.087,77.913,242.087z"/>
</g>
<polygon style="fill:#88888F;" points="244.87,345.043 289.391,300.522 445.217,300.522 489.739,345.043 512,345.043 512,267.13 
	211.478,267.13 211.478,345.043 "/>
<polygon style="fill:#797781;" points="445.217,267.13 445.217,300.522 489.739,345.043 512,345.043 512,267.13 "/>
</svg>