<svg id="Logos_Color_RGB" data-name="Logos Color RGB" xmlns="http://www.w3.org/2000/svg" viewBox="0 0 381.22 87.76"><defs><style>.cls-1{fill:#363545;}.cls-2{fill:#005f9e;}</style></defs><title>Tekla-Horizontal-Color-RGB</title><g id="Product"><path class="cls-1" d="M161.41,78.91V20.25H140V9.35h54.61v10.9H173.16V78.91Z"/><path class="cls-1" d="M189.56,54c0-19,13.45-25.94,23.79-25.94,11.18,0,21.9,6.67,21.9,27v2.73H201.13c.47,9,6,13,13.34,13,6.49,0,10.25-2.16,14-5.83l6.11,6c-5.17,5.73-12,9-21,9C201.13,79.94,189.56,72.33,189.56,54Zm35.06-4.89c-.65-7.61-4.41-11.65-11.37-11.65-5.64,0-10.81,3.19-11.94,11.65Z"/><path class="cls-1" d="M243.52,78.91V9.35h11.56V50.8L274,29h12.69L270.4,47.23l17.67,31.68H276L263.07,55.78l-8,8.75V78.91Z"/><path class="cls-1" d="M294.42,78.91V9.35h11.66V78.91Z"/><path class="cls-1" d="M313.91,66.88c0-10.81,9.21-18,32.52-20.68V44.69c0-5-2.63-7.14-8.18-7.14-7,0-12.6,3.38-16.82,6.77l-5.64-7.24a35.71,35.71,0,0,1,24.06-9c13.35,0,17.95,6.39,17.95,18V66.69c0,6,.38,9.68,1.41,12.22H347.56a18.08,18.08,0,0,1-1.13-6.39c-5.08,5.17-11,7.14-18.43,7.14C319.92,79.66,313.91,75.15,313.91,66.88ZM346.43,65V54c-13.82,1.88-21.15,5.26-21.15,10.71,0,4,2.72,6,7,6A20,20,0,0,0,346.43,65Z"/></g><path class="cls-1" d="M365,71.09A7.87,7.87,0,1,1,372.91,79,7.88,7.88,0,0,1,365,71.09Zm14.69,0a6.8,6.8,0,1,0-6.8,6.9A6.84,6.84,0,0,0,379.71,71.09ZM370,66.57H373c2,0,3.1.88,3.1,2.45a2.19,2.19,0,0,1-1.91,2.38l2.14,3.94h-1.29L373,71.57h-1.8v3.77H370Zm3,4c1.23,0,2-.38,2-1.5s-.75-1.39-2-1.39h-1.73v2.89Z"/><g id="Expanded_Logo" data-name="Expanded Logo"><polygon class="cls-2" points="24.74 0.05 72.52 27.64 65.18 55.05 100 55.05 114.74 0.05 24.74 0.05"/><polygon class="cls-2" points="60.88 32.46 13.4 5.05 0 55.05 54.82 55.05 60.88 32.46"/><polygon class="cls-2" points="7.32 65.05 52.63 65.05 46.66 87.76 7.32 65.05"/></g></svg>