<?xml version="1.0" encoding="iso-8859-1"?>
<!-- Uploaded to: SVG Repo, www.svgrepo.com, Generator: SVG Repo Mixer Tools -->
<svg height="800px" width="800px" version="1.1" id="Layer_1" xmlns="http://www.w3.org/2000/svg" xmlns:xlink="http://www.w3.org/1999/xlink" 
	 viewBox="0 0 504.123 504.123" xml:space="preserve">
<path style="fill:#CC092E;" d="M252.058,498.527L252.058,498.527c-14.336,0-27.475-8.027-34.028-20.779L4.226,61.318
	c-6.089-11.863-5.569-26.025,1.371-37.4c6.955-11.374,19.322-18.314,32.65-18.314h427.63c13.32,0,25.695,6.94,32.65,18.314
	c6.94,11.374,7.459,25.545,1.371,37.408L286.07,477.755C279.517,490.508,266.394,498.527,252.058,498.527z M100.876,82.089
	l151.182,294.463L403.24,82.089L100.876,82.089L100.876,82.089z"/>
<path style="fill:#A50231;" d="M331.993,388.321L499.889,61.318c6.089-11.863,5.569-26.025-1.371-37.408
	c-6.955-11.374-19.322-18.314-32.65-18.314H142.458l37.88,76.485h222.909L289.78,303.084L331.993,388.321z"/>
</svg>