<?xml version="1.0" encoding="iso-8859-1"?>
<!-- Uploaded to: SVG Repo, www.svgrepo.com, Generator: SVG Repo Mixer Tools -->
<svg height="800px" width="800px" version="1.1" id="Layer_1" xmlns="http://www.w3.org/2000/svg" xmlns:xlink="http://www.w3.org/1999/xlink" 
	 viewBox="0 0 496 496" xml:space="preserve">
<path style="fill:#24464F;" d="M189.6,366.4c0,4-3.2,7.2-7.2,7.2H60c-4,0-7.2-3.2-7.2-7.2V324c0-4,3.2-7.2,7.2-7.2h121.6
	c4,0,7.2,3.2,7.2,7.2v42.4H189.6z"/>
<path style="fill:#162F35;" d="M189.6,380c0,4-3.2,7.2-7.2,7.2H60c-4,0-7.2-3.2-7.2-7.2v-42.4c0-4,3.2-7.2,7.2-7.2h121.6
	c4,0,7.2,3.2,7.2,7.2V380H189.6z"/>
<path style="fill:#24464F;" d="M299.2,364c0,4-3.2,7.2-7.2,7.2h-73.6c-4,0-7.2-3.2-7.2-7.2V218.4c0-4,37.6-56.8,41.6-56.8h40
	c4,0,7.2,3.2,7.2,7.2V364H299.2z"/>
<path style="fill:#162F35;" d="M317.6,364c0,4-3.2,7.2-7.2,7.2H236c-4,0-7.2-3.2-7.2-7.2V218.4c0-4,37.6-56.8,41.6-56.8h40
	c4,0,7.2,3.2,7.2,7.2V364z"/>
<path style="fill:#044A7A;" d="M480.8,205.6l-52-19.2L391.2,112c0-4-3.2-6.4-6.4-6.4H274.4c-4,0-6.4,3.2-6.4,6.4v268.8
	c0,4,3.2,6.4,6.4,6.4h96.8H384h96.8c4,0,6.4-3.2,6.4-6.4v-168C488,208.8,484.8,205.6,480.8,205.6z"/>
<path style="fill:#03648E;" d="M479.2,285.6c4,0,7.2-3.2,7.2-7.2v-68c-0.8-2.4-3.2-4-6.4-4l-52-19.2l-37.6-74.4c0-4-3.2-6.4-6.4-6.4
	H274.4c-4,0-6.4,3.2-6.4,6.4v173.6h211.2V285.6z"/>
<path style="fill:#386575;" d="M429.6,187.2L429.6,187.2L399.2,128h-80c-4,0-6.4,3.2-6.4,6.4V180c0,4,3.2,6.4,6.4,6.4L429.6,187.2
	L429.6,187.2z"/>
<path style="fill:#24464F;" d="M496,392c0,4-3.2,7.2-7.2,7.2H30.4c-4,0-7.2-3.2-7.2-7.2v-17.6c0-4,3.2-7.2,7.2-7.2H488
	c4,0,7.2,3.2,7.2,7.2V392H496z"/>
<path d="M2.4,408c0-30.4,24.8-56,56-56s56,24.8,56,56"/>
<path style="fill:#8E8E8E;" d="M116,408h-4.8c0-29.6-24-53.6-53.6-53.6S4,378.4,4,408H0c0-32,26.4-58.4,58.4-58.4S116,376,116,408z"
	/>
<circle style="fill:#203547;" cx="58.4" cy="410.4" r="50.4"/>
<path style="fill:#122130;" d="M93.6,374.4c20,20,20,51.2,0,71.2c-20,20-51.2,20-71.2,0"/>
<circle style="fill:#FFA300;" cx="58.4" cy="410.4" r="32"/>
<path style="fill:#FF8500;" d="M80,388c12,12,12,32,0,44.8c-12,12-32,12-44.8,0"/>
<circle style="fill:#CED8DD;" cx="58.4" cy="410.4" r="28"/>
<path style="fill:#B2BBC1;" d="M77.6,390.4c11.2,11.2,11.2,28,0,39.2s-28,11.2-39.2,0"/>
<path style="opacity:0.2;fill:#888F91;enable-background:new    ;" d="M71.2,410.4c0,7.2-5.6,15.2-12.8,15.2s-12.8-8-12.8-15.2
	s5.6-12.8,12.8-12.8C64.8,397.6,71.2,403.2,71.2,410.4z"/>
<circle style="fill:#E7EFF2;" cx="58.4" cy="410.4" r="12.8"/>
<path style="fill:#DAE6EA;" d="M58.4,397.6c7.2,0,12.8,5.6,12.8,12.8c0,7.2-5.6,12.8-12.8,12.8"/>
<path style="fill:#666E70;" d="M58.4,382.4c-1.6,0-2.4,0-4,0c0.8,4,1.6,7.2,4,7.2s3.2-3.2,4-7.2C60.8,382.4,59.2,382.4,58.4,382.4z"
	/>
<path style="fill:#535A5B;" d="M58.4,389.6c1.6,0,3.2-3.2,4-7.2c-1.6,0-2.4,0-4,0"/>
<path style="fill:#666E70;" d="M54.4,437.6c2.4,0,4.8,0,7.2,0c-0.8-4-1.6-6.4-4-6.4S55.2,433.6,54.4,437.6z"/>
<path style="fill:#535A5B;" d="M61.6,437.6c-0.8-4-1.6-6.4-4-6.4"/>
<path style="fill:#666E70;" d="M36,393.6c3.2,2.4,6.4,3.2,7.2,2.4c1.6-1.6,0-4-2.4-7.2C39.2,389.6,37.6,391.2,36,393.6z"/>
<path style="fill:#535A5B;" d="M43.2,396c1.6-1.6,0-4-2.4-7.2"/>
<path style="fill:#666E70;" d="M80,427.2c-3.2-2.4-6.4-3.2-7.2-2.4c-1.6,1.6,0,4,2.4,7.2c0.8-0.8,1.6-1.6,3.2-2.4S79.2,428,80,427.2
	z"/>
<path style="fill:#535A5B;" d="M77.6,429.6c0.8-0.8,1.6-1.6,2.4-3.2c-3.2-2.4-6.4-3.2-7.2-2.4"/>
<path style="fill:#666E70;" d="M30.4,414.4c4-0.8,7.2-1.6,7.2-4c0-1.6-3.2-3.2-7.2-4c0,1.6,0,2.4,0,4S30.4,412.8,30.4,414.4z"/>
<path style="fill:#535A5B;" d="M37.6,410.4c0-1.6-3.2-3.2-7.2-4c0,1.6,0,2.4,0,4"/>
<path style="fill:#666E70;" d="M78.4,410.4c0,1.6,3.2,3.2,6.4,4c0-2.4,0-4.8,0-7.2C81.6,407.2,78.4,408.8,78.4,410.4z"/>
<path style="fill:#535A5B;" d="M85.6,406.4c-4,0.8-7.2,1.6-7.2,4"/>
<path style="fill:#666E70;" d="M36,427.2c1.6,1.6,3.2,4,5.6,5.6c2.4-3.2,3.2-6.4,2.4-7.2C42.4,424,39.2,424.8,36,427.2z"/>
<path style="fill:#535A5B;" d="M41.6,432c2.4-3.2,3.2-6.4,2.4-7.2"/>
<path style="fill:#666E70;" d="M74.4,388c-2.4,3.2-3.2,6.4-2.4,7.2c1.6,1.6,4,0,7.2-2.4C78.4,391.2,76.8,389.6,74.4,388z"/>
<path style="fill:#535A5B;" d="M74.4,388c-2.4,3.2-3.2,6.4-2.4,7.2"/>
<path d="M332.8,408c0-30.4,24.8-56,56-56c30.4,0,56,24.8,56,56"/>
<path style="fill:#8E8E8E;" d="M447.2,408h-4.8c0-29.6-24-53.6-53.6-53.6s-53.6,24-53.6,53.6h-4.8c0-32,26.4-58.4,58.4-58.4
	S447.2,376,447.2,408z"/>
<circle style="fill:#203547;" cx="388.8" cy="410.4" r="50.4"/>
<path style="fill:#122130;" d="M424,374.4c20,20,20,51.2,0,71.2c-20,20-51.2,20-71.2,0"/>
<circle style="fill:#FFA300;" cx="388.8" cy="410.4" r="32"/>
<path style="fill:#FF8500;" d="M411.2,388c12,12,12,32,0,44.8c-12,12-32,12-44.8,0"/>
<path style="fill:#CED8DD;" d="M416.8,410.4c0,15.2-12,28-28,28c-15.2,0-28-12.8-28-28s12-28,28-28
	C404,382.4,416.8,395.2,416.8,410.4z"/>
<path style="fill:#B2BBC1;" d="M408,390.4c11.2,11.2,11.2,28,0,39.2s-28,11.2-39.2,0"/>
<path style="opacity:0.2;fill:#888F91;enable-background:new    ;" d="M401.6,410.4c0,7.2-5.6,15.2-12.8,15.2
	c-7.2,0-12.8-8-12.8-15.2s5.6-12.8,12.8-12.8S401.6,403.2,401.6,410.4z"/>
<circle style="fill:#E7EFF2;" cx="388.8" cy="410.4" r="12.8"/>
<path style="fill:#DAE6EA;" d="M388.8,397.6c7.2,0,12.8,5.6,12.8,12.8c0,7.2-5.6,12.8-12.8,12.8"/>
<path style="fill:#666E70;" d="M388.8,382.4c-1.6,0-2.4,0-4,0c0.8,4,1.6,7.2,4,7.2c1.6,0,3.2-3.2,4-7.2
	C391.2,382.4,390.4,382.4,388.8,382.4z"/>
<path style="fill:#535A5B;" d="M388.8,389.6c1.6,0,3.2-3.2,4-7.2c-1.6,0-2.4,0-4,0"/>
<path style="fill:#666E70;" d="M384.8,437.6c2.4,0,4.8,0,7.2,0c-0.8-4-2.4-6.4-4-6.4S385.6,433.6,384.8,437.6z"/>
<path style="fill:#535A5B;" d="M392.8,437.6c-0.8-4-2.4-6.4-4-6.4"/>
<path style="fill:#666E70;" d="M366.4,393.6c3.2,2.4,6.4,3.2,7.2,2.4c1.6-1.6,0-4-2.4-7.2C370.4,389.6,368,391.2,366.4,393.6z"/>
<path style="fill:#535A5B;" d="M374.4,396c1.6-1.6,0-4-2.4-7.2"/>
<path style="fill:#666E70;" d="M410.4,427.2c-3.2-2.4-6.4-3.2-7.2-2.4c-1.6,1.6,0,4,2.4,7.2c0.8-0.8,2.4-1.6,3.2-2.4
	C409.6,428.8,409.6,428,410.4,427.2z"/>
<path style="fill:#535A5B;" d="M408,429.6c0.8-0.8,1.6-1.6,2.4-3.2c-3.2-2.4-6.4-3.2-7.2-2.4"/>
<path style="fill:#666E70;" d="M361.6,414.4c4-0.8,7.2-1.6,7.2-4c0-1.6-3.2-3.2-7.2-4c0,1.6,0,2.4,0,4S361.6,412.8,361.6,414.4z"/>
<path style="fill:#535A5B;" d="M368,410.4c0-1.6-3.2-3.2-7.2-4c0,1.6,0,2.4,0,4"/>
<path style="fill:#666E70;" d="M409.6,410.4c0,1.6,3.2,3.2,6.4,4c0-2.4,0-4.8,0-7.2C412,407.2,409.6,408.8,409.6,410.4z"/>
<path style="fill:#535A5B;" d="M416,406.4c-4,0.8-7.2,1.6-7.2,4"/>
<path style="fill:#666E70;" d="M366.4,427.2c1.6,1.6,3.2,4,5.6,5.6c2.4-3.2,3.2-6.4,2.4-7.2C372.8,424,369.6,424.8,366.4,427.2z"/>
<path style="fill:#535A5B;" d="M372,432c2.4-3.2,3.2-6.4,2.4-7.2"/>
<path style="fill:#666E70;" d="M405.6,388c-2.4,3.2-3.2,6.4-2.4,7.2c1.6,1.6,4,0,7.2-2.4C409.6,391.2,407.2,389.6,405.6,388z"/>
<path style="fill:#535A5B;" d="M405.6,388c-2.4,3.2-3.2,6.4-2.4,7.2"/>
<g>
	<path style="fill:#9FA0A0;" d="M338.4,200.8c0,2.4-1.6,4-4,4H316c-2.4,0-4-1.6-4-4l0,0c0-2.4,1.6-4,4-4h18.4
		C336.8,196.8,338.4,198.4,338.4,200.8L338.4,200.8z"/>
	<path style="fill:#9FA0A0;" d="M276.8,401.6c0,2.4-1.6,4.8-4.8,4.8l0,0c-2.4,0-4.8-1.6-4.8-4.8V320c0-2.4,1.6-4.8,4.8-4.8l0,0
		c2.4,0,4.8,1.6,4.8,4.8V401.6z"/>
	<path style="fill:#9FA0A0;" d="M316.8,401.6c0,2.4-1.6,4.8-4.8,4.8l0,0c-2.4,0-4.8-1.6-4.8-4.8V320c0-2.4,1.6-4.8,4.8-4.8l0,0
		c2.4,0,4.8,1.6,4.8,4.8V401.6z"/>
	<path style="fill:#9FA0A0;" d="M312.8,325.6c0,1.6-1.6,3.2-3.2,3.2h-34.4c-1.6,0-3.2-1.6-3.2-3.2l0,0c0-1.6,1.6-3.2,3.2-3.2h34.4
		C311.2,323.2,312.8,324,312.8,325.6L312.8,325.6z"/>
	<path style="fill:#9FA0A0;" d="M312.8,341.6c0,1.6-1.6,3.2-3.2,3.2h-34.4c-1.6,0-3.2-1.6-3.2-3.2l0,0c0-1.6,1.6-3.2,3.2-3.2h34.4
		C311.2,338.4,312.8,340,312.8,341.6L312.8,341.6z"/>
	<path style="fill:#9FA0A0;" d="M312.8,357.6c0,1.6-1.6,3.2-3.2,3.2h-34.4c-1.6,0-3.2-1.6-3.2-3.2l0,0c0-1.6,1.6-3.2,3.2-3.2h34.4
		C311.2,354.4,312.8,356,312.8,357.6L312.8,357.6z"/>
	<path style="fill:#9FA0A0;" d="M312.8,372.8c0,1.6-1.6,3.2-3.2,3.2h-34.4c-1.6,0-3.2-1.6-3.2-3.2l0,0c0-1.6,1.6-3.2,3.2-3.2h34.4
		C311.2,370.4,312.8,371.2,312.8,372.8L312.8,372.8z"/>
	<path style="fill:#9FA0A0;" d="M312.8,388.8c0,1.6-1.6,3.2-3.2,3.2h-34.4c-1.6,0-3.2-1.6-3.2-3.2l0,0c0-1.6,1.6-3.2,3.2-3.2h34.4
		C311.2,386.4,312.8,387.2,312.8,388.8L312.8,388.8z"/>
</g>
<path style="fill:#FFA300;" d="M490.4,298.4c0,4-3.2,7.2-7.2,7.2h-4c-4,0-8-3.2-8-7.2v-24c0-4,3.2-7.2,8-7.2h4c4,0,7.2,3.2,7.2,7.2
	V298.4z"/>
<polygon style="fill:#044A7A;" points="481.6,312 466.4,312 466.4,272 481.6,264 "/>
<g>
	<path style="fill:#51859B;" d="M328,128h-8.8c-4,0-6.4,3.2-6.4,6.4v8.8L328,128z"/>
	<polygon style="fill:#51859B;" points="312.8,178.4 363.2,128 351.2,128 312.8,167.2 	"/>
	<polygon style="fill:#51859B;" points="355.2,187.2 404,138.4 400.8,132 345.6,187.2 	"/>
	<polygon style="fill:#51859B;" points="416.8,162.4 392,187.2 429.6,187.2 429.6,187.2 428.8,187.2 	"/>
	<path style="fill:#51859B;" d="M331.2,187.2l59.2-59.2h-20l-56,56c0.8,1.6,3.2,2.4,4.8,2.4h12V187.2z"/>
</g>
<path style="fill:#8E8E8E;" d="M262.4,387.2c0,1.6-1.6,3.2-3.2,3.2l0,0c-1.6,0-3.2-1.6-3.2-3.2V56c0-1.6,1.6-3.2,3.2-3.2l0,0
	c1.6,0,3.2,1.6,3.2,3.2V387.2z"/>
<path style="fill:#B1B2B2;" d="M273.6,244.8c0,4-3.2,7.2-7.2,7.2H252c-4,0-7.2-3.2-7.2-7.2v-91.2c0-4,3.2-7.2,7.2-7.2h14.4
	c4,0,7.2,3.2,7.2,7.2V244.8z"/>
<path style="fill:#8E8E8E;" d="M273.6,151.2c3.2,0,5.6,2.4,5.6,5.6v84.8c0,3.2-2.4,5.6-5.6,5.6H244c-3.2,0-5.6-2.4-5.6-5.6v-84.8
	c0-3.2,2.4-5.6,5.6-5.6H273.6z"/>
<path style="fill:#9FA0A0;" d="M238.4,156.8v84.8c0,3.2,2.4,5.6,5.6,5.6h11.2c3.2,0,5.6-2.4,5.6-5.6v-84.8c0-3.2-2.4-5.6-5.6-5.6
	H244C240.8,151.2,238.4,153.6,238.4,156.8z"/>
<g>
	<circle style="fill:#6C6D6D;" cx="247.2" cy="160.8" r="1.6"/>
	<circle style="fill:#6C6D6D;" cx="255.2" cy="160.8" r="1.6"/>
	<circle style="fill:#6C6D6D;" cx="263.2" cy="160.8" r="1.6"/>
	<circle style="fill:#6C6D6D;" cx="271.2" cy="160.8" r="1.6"/>
	<circle style="fill:#6C6D6D;" cx="247.2" cy="168" r="1.6"/>
	<circle style="fill:#6C6D6D;" cx="255.2" cy="168" r="1.6"/>
	<circle style="fill:#6C6D6D;" cx="263.2" cy="168" r="1.6"/>
	<circle style="fill:#6C6D6D;" cx="271.2" cy="168" r="1.6"/>
	<circle style="fill:#6C6D6D;" cx="247.2" cy="176" r="1.6"/>
	<circle style="fill:#6C6D6D;" cx="255.2" cy="176" r="1.6"/>
	<circle style="fill:#6C6D6D;" cx="263.2" cy="176" r="1.6"/>
	<circle style="fill:#6C6D6D;" cx="271.2" cy="176" r="1.6"/>
	<circle style="fill:#6C6D6D;" cx="247.2" cy="184" r="1.6"/>
	<circle style="fill:#6C6D6D;" cx="255.2" cy="184" r="1.6"/>
	<circle style="fill:#6C6D6D;" cx="263.2" cy="184" r="1.6"/>
	<circle style="fill:#6C6D6D;" cx="271.2" cy="184" r="1.6"/>
	<circle style="fill:#6C6D6D;" cx="247.2" cy="191.2" r="1.6"/>
	<circle style="fill:#6C6D6D;" cx="255.2" cy="191.2" r="1.6"/>
	<circle style="fill:#6C6D6D;" cx="263.2" cy="191.2" r="1.6"/>
	<circle style="fill:#6C6D6D;" cx="271.2" cy="191.2" r="1.6"/>
	<circle style="fill:#6C6D6D;" cx="247.2" cy="199.2" r="1.6"/>
	<circle style="fill:#6C6D6D;" cx="255.2" cy="199.2" r="1.6"/>
	<circle style="fill:#6C6D6D;" cx="263.2" cy="199.2" r="1.6"/>
	<circle style="fill:#6C6D6D;" cx="271.2" cy="199.2" r="1.6"/>
	<circle style="fill:#6C6D6D;" cx="247.2" cy="207.2" r="1.6"/>
	<circle style="fill:#6C6D6D;" cx="255.2" cy="207.2" r="1.6"/>
	<circle style="fill:#6C6D6D;" cx="263.2" cy="207.2" r="1.6"/>
	<circle style="fill:#6C6D6D;" cx="271.2" cy="207.2" r="1.6"/>
	<circle style="fill:#6C6D6D;" cx="247.2" cy="214.4" r="1.6"/>
	<circle style="fill:#6C6D6D;" cx="255.2" cy="214.4" r="1.6"/>
	<circle style="fill:#6C6D6D;" cx="263.2" cy="214.4" r="1.6"/>
	<circle style="fill:#6C6D6D;" cx="271.2" cy="214.4" r="1.6"/>
	<circle style="fill:#6C6D6D;" cx="247.2" cy="222.4" r="1.6"/>
	<circle style="fill:#6C6D6D;" cx="255.2" cy="222.4" r="1.6"/>
	<circle style="fill:#6C6D6D;" cx="263.2" cy="222.4" r="1.6"/>
	<circle style="fill:#6C6D6D;" cx="271.2" cy="222.4" r="1.6"/>
	<circle style="fill:#6C6D6D;" cx="247.2" cy="230.4" r="1.6"/>
	<circle style="fill:#6C6D6D;" cx="255.2" cy="230.4" r="1.6"/>
	<circle style="fill:#6C6D6D;" cx="263.2" cy="230.4" r="1.6"/>
	<circle style="fill:#6C6D6D;" cx="271.2" cy="230.4" r="1.6"/>
	<circle style="fill:#6C6D6D;" cx="247.2" cy="237.6" r="1.6"/>
	<circle style="fill:#6C6D6D;" cx="255.2" cy="237.6" r="1.6"/>
	<circle style="fill:#6C6D6D;" cx="263.2" cy="237.6" r="1.6"/>
	<circle style="fill:#6C6D6D;" cx="271.2" cy="237.6" r="1.6"/>
</g>
<path style="fill:#8E8E8E;" d="M263.2,403.2c0,4-3.2,7.2-8,7.2H136c-4,0-7.2-3.2-7.2-7.2v-41.6c0-4,3.2-7.2,7.2-7.2h120
	c4,0,8,3.2,8,7.2v41.6H263.2z"/>
<path style="fill:#9FA0A0;" d="M256,353.6H136c-4,0-7.2,3.2-7.2,7.2v16c0,4,3.2,7.2,7.2,7.2h120c4,0,8-3.2,8-7.2v-16
	C263.2,356.8,260,353.6,256,353.6z"/>
<circle style="fill:#8E8E8E;" cx="259.2" cy="48" r="12.8"/>
</svg>