<?xml version="1.0" encoding="UTF-8" standalone="no"?>
<svg
   viewBox="0 0 120 120"
   width="120"
   height="120"
   version="1.1"
   id="svg12"
   sodipodi:docname="dogos.svg"
   inkscape:version="1.3.2 (091e20e, 2023-11-25, custom)"
   xmlns:inkscape="http://www.inkscape.org/namespaces/inkscape"
   xmlns:sodipodi="http://sodipodi.sourceforge.net/DTD/sodipodi-0.dtd"
   xmlns="http://www.w3.org/2000/svg"
   xmlns:svg="http://www.w3.org/2000/svg">
  <sodipodi:namedview
     id="namedview12"
     pagecolor="#f3f5f7"
     bordercolor="#000000"
     borderopacity="0.25"
     inkscape:showpageshadow="2"
     inkscape:pageopacity="0.0"
     inkscape:pagecheckerboard="0"
     inkscape:deskcolor="#d1d1d1"
     showgrid="false"
     inkscape:zoom="5.6088105"
     inkscape:cx="50.902058"
     inkscape:cy="53.04155"
     inkscape:window-width="1920"
     inkscape:window-height="1001"
     inkscape:window-x="-9"
     inkscape:window-y="-9"
     inkscape:window-maximized="1"
     inkscape:current-layer="g12"
     inkscape:lockguides="false" />
  <desc
     id="desc1">dogos_01_00_00.dxf - scale = 1.000000, origin = (0.000000, 0.000000), method = manual</desc>
  <defs
     id="defs4">
    <inkscape:path-effect
       effect="mirror_symmetry"
       start_point="60,0"
       end_point="50,20"
       center_point="55,10"
       id="path-effect1"
       is_visible="true"
       lpeversion="1.2"
       lpesatellites=""
       mode="free"
       discard_orig_path="false"
       fuse_paths="false"
       oposite_fuse="false"
       split_items="false"
       split_open="false"
       link_styles="false" />
    <marker
       id="DistanceX"
       orient="auto"
       refX="0"
       refY="0"
       style="overflow:visible">
      <path
         d="M 3,-3 -3,3 M 0,-5 V 5"
         style="stroke:#000000;stroke-width:0.5"
         id="path1" />
    </marker>
    <pattern
       id="Hatch"
       patternUnits="userSpaceOnUse"
       width="8"
       height="8"
       x="0"
       y="0">
      <path
         d="M8 4 l-4,4"
         stroke="#000000"
         stroke-width="0.25"
         linecap="square"
         id="path2" />
      <path
         d="M6 2 l-4,4"
         stroke="#000000"
         stroke-width="0.25"
         linecap="square"
         id="path3" />
      <path
         d="M4 0 l-4,4"
         stroke="#000000"
         stroke-width="0.25"
         linecap="square"
         id="path4" />
    </pattern>
    <symbol
       id="*Model_Space" />
    <symbol
       id="*Paper_Space" />
    <symbol
       id="*Paper_Space0" />
  </defs>
  <g
     inkscape:groupmode="layer"
     inkscape:label="DogOs"
     id="g12"
     style="fill:none;stroke-width:2;stroke-dasharray:none">
    <path
       d="m 105.05864,36.571272 a 9.448819,14.320975 45 0 0 -20.252924,20.2529 9.448819,14.320975 45 0 0 20.252924,-20.2529 z"
       style="fill:#03104e;stroke:#03104e;stroke-width:2;stroke-dasharray:none;stroke-opacity:1;fill-opacity:1"
       id="path5" />
    <path
       d="m 108.51346,66.751472 a 9.448819,14.320975 45 0 0 -20.252914,20.2529 9.448819,14.320975 45 0 0 20.252914,-20.2529 z"
       style="fill:#03104e;stroke:#03104e;stroke-width:2;stroke-dasharray:none;stroke-opacity:1;fill-opacity:1"
       id="path6" />
    <path
       d="m 81.043725,14.099802 a 9.448819,14.320975 45 0 0 -20.252921,20.2529 9.448819,14.320975 45 0 0 20.252921,-20.2529 z"
       style="fill:#03104e;stroke:#03104e;stroke-width:2;stroke-dasharray:none;stroke-opacity:1;fill-opacity:1"
       id="path5-1" />
    <path
       d="M 50.623269,12.900799 A 9.448819,14.320975 45 0 0 30.370358,33.1537 9.448819,14.320975 45 0 0 50.623269,12.900799 Z"
       style="fill:#03104e;stroke:#03104e;stroke-width:2;stroke-dasharray:none;stroke-opacity:1;fill-opacity:1"
       id="path6-1"
       inkscape:label="path6-1" />
    <path
       d="M 47.820395,100.86961 C 41.5837,89.659963 32.25673,80.301473 21.0334,74.055563 8.7714268,67.385595 6.8834014,57.279819 16.45125,49.529342 c 9.567848,-7.750478 28.144244,-11.163188 45.084,-8.282479 9.60757,1.9144 17.1808,9.55069 19.08991,19.13274 2.875439,16.914226 -0.537271,35.490622 -8.287749,45.058467 -7.750477,9.56785 -17.856253,7.67982 -24.517016,-4.56846 z"
       style="fill:#03104e;fill-opacity:1;stroke:#03104e;stroke-width:2;stroke-dasharray:none;stroke-opacity:1"
       id="use12-4"
       sodipodi:nodetypes="ccscccc" />
  </g>
</svg>
