<svg xmlns="http://www.w3.org/2000/svg" width="965.0002" height="1024" viewBox="0 0 965.0002 1024"><g id="be60c149-1dc1-477c-b045-12663e1d394e" data-name="container - RED"><path id="b83b8fd5-f36b-458c-acee-3f7cad1b947e" data-name="back layer" d="M185,.15,915,160h79v864H166a52,52,0,0,1-52-52V754.2921L183.4662,2.4109Z" transform="translate(-29)" fill="#78082a"></path><path id="a60eb6ee-bca5-4940-8218-3330eae25db9" data-name="primary facade" d="M156,0H842a52,52,0,0,1,52,52V720a0,0,0,0,1,0,0H156a0,0,0,0,1,0,0V0A0,0,0,0,1,156,0Z" fill="#e51050"></path><polygon id="ecae3e7c-27b4-4b45-89fc-0897a090f2ac" data-name="flap" points="0 814 156 720 156 0 0 94 0 814" fill="#e85984"></polygon></g><g id="e879d57f-d935-4d69-975c-b827a44e875c"><path d="M556.1084,913.3984V942.127h-94.61V790.9248h37.8008V913.3984Z" transform="translate(-29)" fill="#fff"></path><path d="M663.3506,818.1406H623.8223V942.127H586.0215V818.1406h-39.961V790.9248h117.29Z" transform="translate(-29)" fill="#fff"></path></g><g id="b32fac47-30c8-4ae7-9598-8383cda8cba4" data-name="product initial template"><path d="M611.292,472.916H491.5908l-22.23,87.211H370.1787l114.002-399.0049H616.9922L737.2637,560.127H635.8018ZM550.3008,226.6729l-40.47,172.142h82.08Z" transform="translate(-29)" fill="#fff"></path><path d="M611.292,472.916H491.5908l-22.23,87.211H370.1787l114.002-399.0049H616.9922L737.2637,560.127H635.8018ZM550.3008,226.6729l-40.47,172.142h82.08Z" transform="translate(-29)" fill="#fff"></path></g></svg>