<svg xmlns="http://www.w3.org/2000/svg" width="965.0002" height="1024" viewBox="0 0 965.0002 1024"><g id="e25372ea-27b2-45f8-b937-c38b344ca81c" data-name="container - RED"><path id="ec81e7e6-36d2-491f-af83-4317f13d0d06" data-name="back layer" d="M185,.15,915,160h79v864H166a52,52,0,0,1-52-52V754.2921L183.4662,2.4109Z" transform="translate(-29)" fill="#78082a"/><path id="ef348a5d-d511-43e6-bf3d-d7f168769fee" data-name="primary facade" d="M156,0H842a52,52,0,0,1,52,52V720a0,0,0,0,1,0,0H156a0,0,0,0,1,0,0V0A0,0,0,0,1,156,0Z" fill="#e51050"/><polygon id="ecbb4b61-ca51-4d97-a26b-3e9b0a388f40" data-name="flap" points="0 814 156 720 156 0 0 94 0 814" fill="#e85984"/></g><g id="b2e6e549-8e62-4cc1-95bd-8b2080b4f333" data-name="product subscript template"><path d="M351.3726,887.4785V845.5732c0-34.5605,21.8164-58.1044,61.5615-58.1044,34.7763,0,56.5928,16.416,57.6728,48.1679H435.83c-.8633-13.1758-7.9912-20.9512-22.4639-20.9512-15.12,0-23.7607,9.9356-23.7607,26.1358v51.4092c0,16.2,8.4248,26.1357,23.5449,26.1357,15.5518,0,22.248-7.9922,22.8965-22.4639h35.208c-2.16,33.9122-22.8965,49.6807-59.1846,49.6807C374.4849,945.583,351.3726,922.0391,351.3726,887.4785Z" transform="translate(-29)" fill="#fff"/><path d="M571.37,909.0781H526.0088L517.585,942.127H480.0005l43.2007-151.2022H573.53L619.1064,942.127H580.6582Zm-23.1123-93.3125L532.9209,880.998h31.1055Z" transform="translate(-29)" fill="#fff"/><path d="M756.6309,851.19v27.8642c0,38.8809-23.7608,63.0733-68.6895,63.0733H638.4766V790.9248H693.126C735.4619,790.9248,756.6309,815.1172,756.6309,851.19ZM718.83,849.8936c0-21.169-8.6406-31.753-26.7842-31.753H676.2773v96.77h12.5284c20.0879,0,30.0244-10.8,30.0244-34.7764Z" transform="translate(-29)" fill="#fff"/></g><g id="a47c2a2c-92e3-4d8a-be4d-df500041a9c8" data-name="product initial template"><path d="M611.292,472.916H491.5908l-22.23,87.211H370.1787l114.002-399.0049H616.9922L737.2637,560.127H635.8018ZM550.3008,226.6729l-40.47,172.142h82.08Z" transform="translate(-29)" fill="#fff"/><path d="M611.292,472.916H491.5908l-22.23,87.211H370.1787l114.002-399.0049H616.9922L737.2637,560.127H635.8018ZM550.3008,226.6729l-40.47,172.142h82.08Z" transform="translate(-29)" fill="#fff"/></g></svg>