<svg xmlns="http://www.w3.org/2000/svg" width="965.0002" height="1024" viewBox="0 0 965.0002 1024"><g id="fe2d26c4-0530-41a9-b6bd-3dbad7f3530c" data-name="container - PLUM"><path id="e858927c-633a-4633-bf8a-c5a2f090adea" data-name="back layer" d="M185,.15,915,160h79v864H166a52,52,0,0,1-52-52V754.2921L183.4662,2.4109Z" transform="translate(-29)" fill="#67074c"/><path id="b1002ba1-ec0c-44db-99c3-1ff776eacda7" data-name="primary facade" d="M156,0H842a52,52,0,0,1,52,52V720a0,0,0,0,1,0,0H156a0,0,0,0,1,0,0V0A0,0,0,0,1,156,0Z" fill="#a90c7c"/><polygon id="a3369e45-d1cf-41ad-bd06-4d96130a9b41" data-name="flap" points="0 814 156 720 156 0 0 94 0 814" fill="#d44fae"/></g><g id="aad04c3a-cc10-497e-b336-0fdf983ff0e5" data-name="product subscript template"><path d="M356.7827,887.4785V845.5732c0-34.5605,21.8164-58.1044,61.5615-58.1044,34.7764,0,56.5928,16.416,57.6729,48.1679H441.24c-.8632-13.1758-7.9912-20.9512-22.4638-20.9512-15.12,0-23.7608,9.9356-23.7608,26.1358v51.4092c0,16.2,8.4248,26.1357,23.545,26.1357,15.5517,0,22.248-7.9922,22.8964-22.4639h35.2081c-2.16,33.9122-22.8965,49.6807-59.1846,49.6807C379.895,945.583,356.7827,922.0391,356.7827,887.4785Z" transform="translate(-29)" fill="#fff"/><path d="M492.43,901.0859h35.4243c1.08,9.0723,7.3447,17.7129,22.4648,17.7129,13.1758,0,21.8164-6.2646,21.8164-19.873v-4.5352c0-16.416-16.416-19.2246-27.2168-19.2246h-11.664V849.8936h11.664c10.8008,0,21.8165-3.4561,21.8165-15.9844v-5.1846c0-9.9355-6.6963-14.9043-17.712-14.9043-12.7441,0-18.5761,7.9922-19.44,17.4971H494.1577c1.08-23.1123,21.1685-43.8486,57.0259-43.8486,30.6719,0,52.7041,15.5517,52.7041,37.8007v8.2071c0,12.7451-12.0957,23.7617-27,27.2168,14.9043,2.5918,32.832,12.7441,32.832,32.4v10.1523c0,24.4082-24.4082,42.3369-57.457,42.3369C509.9263,945.583,494.8062,923.335,492.43,901.0859Z" transform="translate(-29)" fill="#fff"/><path d="M751.22,851.19v27.8642c0,38.8809-23.7607,63.0733-68.6894,63.0733H633.0654V790.9248h54.6494C730.0508,790.9248,751.22,815.1172,751.22,851.19Zm-37.8008-1.2959c0-21.169-8.6406-31.753-26.7841-31.753H670.8662v96.77h12.5283c20.0879,0,30.0244-10.8,30.0244-34.7764Z" transform="translate(-29)" fill="#fff"/></g><g id="a905a4e3-06e4-4347-9063-c1a98b9cb194" data-name="product initial template"><path d="M401.2412,415.915V305.3335c0-91.2012,57.5713-153.3315,162.4522-153.3315,91.7714,0,149.3418,43.32,152.1923,127.1113H624.1143c-2.28-34.77-21.09-55.29-59.2813-55.29-39.9,0-62.7,26.22-62.7,68.9707V428.4551c0,42.751,22.2305,68.9712,62.1309,68.9712,41.04,0,58.7109-21.09,60.4209-59.2808h92.9111c-5.7,89.4912-60.4209,131.1016-156.1826,131.1016C462.2324,569.2471,401.2412,507.1162,401.2412,415.915Z" transform="translate(-29)" fill="#fff"/></g></svg>